<?xml version="1.0" encoding="iso-8859-1"?>
<!-- Generator: Adobe Illustrator 19.0.0, SVG Export Plug-In . SVG Version: 6.00 Build 0)  -->
<svg version="1.1" id="Layer_1" xmlns="http://www.w3.org/2000/svg" xmlns:xlink="http://www.w3.org/1999/xlink" x="0px" y="0px"
	 viewBox="20 -20 150 150" style="enable-background:new 20 -20 150 150;" xml:space="preserve">
<g id="XMLID_1_">
	<g id="XMLID_2_">
		
			<rect id="XMLID_2927_" x="94.898" y="11.906" transform="matrix(0.7071 -0.7071 0.7071 0.7071 16.6958 77.0604)" style="fill:#F7C567;" width="12.941" height="12.941"/>
		<polygon id="XMLID_2926_" style="fill:#F7C567;" points="140.422,31.586 114.575,57.432 114.558,57.447 88.712,57.447 
			88.423,57.161 75.711,44.463 62.499,57.674 49.29,44.463 62.499,31.252 75.454,18.299 101.378,44.221 127.213,18.374 		"/>
	</g>
	<g id="XMLID_2913_">
		<g id="XMLID_2917_">
			<path id="XMLID_2924_" style="fill:#F7C567;" d="M62.916,83.734l-0.575-1.325c-0.534-1.267-0.8-2.376-0.8-3.326
				c0-0.65,0.225-1.405,0.675-2.263s1.205-1.504,2.264-1.938c1.058-0.433,1.738-0.717,2.038-0.85l3.126-1.276l5.377,15.081h-4.352
				l-3.251-9.528c-0.684,0-1.167,0.309-1.45,0.925c-0.067,0.134-0.1,0.3-0.1,0.5c0,0.334,0.108,0.759,0.325,1.276l2.801,6.827
				h-13.83c-1.767-0.05-3.185-0.642-4.251-1.776c-0.734-0.734-1.147-1.442-1.238-2.126c-0.092-0.683-0.138-2.734-0.138-6.152
				l4.102-1.3v5.727c0.183,0.934,0.725,1.442,1.626,1.526h7.651V83.734z"/>
			<g id="XMLID_2921_">
				<polygon id="XMLID_2923_" style="fill:#F7C567;" points="56.764,95.711 53.713,92.685 56.764,89.609 59.79,92.685 				"/>
				<polygon id="XMLID_2922_" style="fill:#F7C567;" points="62.141,95.711 59.09,92.685 62.141,89.609 65.167,92.685 				"/>
			</g>
			<path id="XMLID_2918_" style="fill:#F7C567;" d="M86.4,83.734l-2.101,4.077l-1.625,0.025c-1.101,0-2.114-0.263-3.039-0.788
				c-0.925-0.525-1.676-1.267-2.251-2.226s-0.863-2.113-0.863-3.464c0-1.284,0.288-2.401,0.863-3.351s1.326-1.692,2.251-2.226
				s1.938-0.8,3.039-0.8h7.803v13.955c0,1.467-0.509,2.692-1.525,3.677c-0.967,0.983-2.126,1.5-3.476,1.55h-6.202l-1.776-4.076
				h7.803c0.217,0,0.375-0.025,0.475-0.075c0.1-0.05,0.2-0.134,0.3-0.25c0.233-0.234,0.35-0.509,0.35-0.825L86.4,83.734z
				 M86.4,83.734v-4.652h-3.726c-0.617,0-1.117,0.209-1.501,0.625c-0.384,0.417-0.575,0.967-0.575,1.651
				c0,0.734,0.191,1.313,0.575,1.738c0.383,0.425,0.884,0.638,1.501,0.638H86.4z"/>
		</g>
		<g id="XMLID_2914_">
			<polygon id="XMLID_2916_" style="fill:#F7C567;" points="140.969,71.355 137.943,68.279 134.892,71.355 137.943,74.431 			"/>
			<path id="XMLID_2915_" style="fill:#F7C567;" d="M136.342,82.634c0,0.317-0.109,0.584-0.325,0.8c-0.217,0.2-0.484,0.3-0.8,0.3
				h-3.051h-0.7h-9.903h-0.826h-9.778h-0.825h-10.005h-0.6h-1.85c-0.317,0-0.584-0.116-0.8-0.35c-0.2-0.2-0.3-0.45-0.3-0.75
				l-0.05-15.831l-4.051,1.525v14.305c0,1.451,0.508,2.68,1.525,3.689s2.242,1.513,3.677,1.513h1.85h0.6h10.003h0.825h9.778h0.826
				h9.903h0.7h3.051c1.434,0,2.651-0.508,3.651-1.526c1.017-1,1.525-2.226,1.525-3.676v-7.778l-4.051,1.526v6.253H136.342z"/>
		</g>
	</g>
	<g id="XMLID_2910_">
		<g>
			<path id="XMLID_56_" style="fill:#F7C567;" d="M98.92,95.193h0.075c0.101,0,0.182-0.013,0.243-0.038
				c0.063-0.025,0.113-0.067,0.156-0.126c0.042-0.059,0.074-0.133,0.096-0.223c0.023-0.09,0.049-0.202,0.076-0.336l0.9-4.649h1.58
				l-0.857,4.305c-0.084,0.369-0.167,0.714-0.248,1.033c-0.082,0.32-0.193,0.601-0.336,0.841c-0.144,0.241-0.33,0.429-0.56,0.563
				c-0.208,0.129-0.474,0.199-0.799,0.21h-1.589l-0.135-0.697l-0.983-4.675h-0.075c-0.102,0-0.183,0.013-0.244,0.038
				s-0.113,0.067-0.156,0.126c-0.041,0.06-0.074,0.134-0.096,0.223c-0.022,0.09-0.047,0.202-0.075,0.337l-0.9,4.648h-1.581
				l0.858-4.304c0.084-0.37,0.167-0.715,0.248-1.034s0.193-0.6,0.336-0.841c0.143-0.241,0.329-0.432,0.559-0.571
				c0.208-0.124,0.474-0.19,0.799-0.202H97.8l0.135,0.697L98.92,95.193z"/>
			<path id="XMLID_58_" style="fill:#F7C567;" d="M107.654,93.975l-0.539,2.883h-1.547l1.076-5.354
				c0.068-0.331,0.148-0.603,0.244-0.815s0.212-0.384,0.35-0.513c0.137-0.129,0.304-0.219,0.5-0.27
				c0.195-0.051,0.426-0.075,0.689-0.075h1.925l1.454,7.027h-1.555l-0.387-2.009h-1.833L107.654,93.975z M109.184,91.032h-0.227
				c-0.18,0-0.325,0.007-0.438,0.021c-0.111,0.015-0.201,0.046-0.269,0.097s-0.116,0.123-0.147,0.219s-0.061,0.227-0.088,0.396
				l-0.295,1.874h1.9L109.184,91.032z"/>
			<path id="XMLID_61_" style="fill:#F7C567;" d="M121.029,89.88l0.865,5.229h0.093c0.079,0,0.126-0.034,0.144-0.102l0.967-5.128
				h1.656l-1.135,5.624c-0.063,0.292-0.127,0.524-0.193,0.698c-0.068,0.174-0.152,0.311-0.253,0.412
				c-0.101,0.101-0.222,0.166-0.361,0.197c-0.14,0.03-0.309,0.046-0.505,0.046h-1.379l-0.874-4.514h-0.093l-0.571,3.16
				c-0.062,0.292-0.128,0.524-0.197,0.698c-0.07,0.174-0.155,0.311-0.257,0.412c-0.101,0.101-0.221,0.166-0.361,0.197
				c-0.141,0.03-0.309,0.046-0.504,0.046h-1.313l-1.429-6.978h1.665l0.983,5.229h0.101c0.078,0,0.127-0.034,0.143-0.102l0.799-5.128
				h2.009V89.88z"/>
			<path id="XMLID_63_" style="fill:#F7C567;" d="M131.84,96.782h-1.488v-2.505l-2.043-4.447h1.674l1.093,2.934l1.126-2.934h1.674
				l-2.035,4.422v2.53H131.84z"/>
		</g>
		<g>
			<path id="XMLID_47_" style="fill:#F7C567;" d="M98.92,95.193h0.075c0.101,0,0.182-0.013,0.243-0.038
				c0.063-0.025,0.113-0.067,0.156-0.126c0.042-0.059,0.074-0.133,0.096-0.223c0.023-0.09,0.049-0.202,0.076-0.336l0.9-4.649h1.58
				l-0.857,4.305c-0.084,0.369-0.167,0.714-0.248,1.033c-0.082,0.32-0.193,0.601-0.336,0.841c-0.144,0.241-0.33,0.429-0.56,0.563
				c-0.208,0.129-0.474,0.199-0.799,0.21h-1.589l-0.135-0.697l-0.983-4.675h-0.075c-0.102,0-0.183,0.013-0.244,0.038
				s-0.113,0.067-0.156,0.126c-0.041,0.06-0.074,0.134-0.096,0.223c-0.022,0.09-0.047,0.202-0.075,0.337l-0.9,4.648h-1.581
				l0.858-4.304c0.084-0.37,0.167-0.715,0.248-1.034s0.193-0.6,0.336-0.841c0.143-0.241,0.329-0.432,0.559-0.571
				c0.208-0.124,0.474-0.19,0.799-0.202H97.8l0.135,0.697L98.92,95.193z"/>
			<path id="XMLID_49_" style="fill:#F7C567;" d="M107.654,93.975l-0.539,2.883h-1.547l1.076-5.354
				c0.068-0.331,0.148-0.603,0.244-0.815s0.212-0.384,0.35-0.513c0.137-0.129,0.304-0.219,0.5-0.27
				c0.195-0.051,0.426-0.075,0.689-0.075h1.925l1.454,7.027h-1.555l-0.387-2.009h-1.833L107.654,93.975z M109.184,91.032h-0.227
				c-0.18,0-0.325,0.007-0.438,0.021c-0.111,0.015-0.201,0.046-0.269,0.097s-0.116,0.123-0.147,0.219s-0.061,0.227-0.088,0.396
				l-0.295,1.874h1.9L109.184,91.032z"/>
			<path id="XMLID_52_" style="fill:#F7C567;" d="M121.029,89.88l0.865,5.229h0.093c0.079,0,0.126-0.034,0.144-0.102l0.967-5.128
				h1.656l-1.135,5.624c-0.063,0.292-0.127,0.524-0.193,0.698c-0.068,0.174-0.152,0.311-0.253,0.412
				c-0.101,0.101-0.222,0.166-0.361,0.197c-0.14,0.03-0.309,0.046-0.505,0.046h-1.379l-0.874-4.514h-0.093l-0.571,3.16
				c-0.062,0.292-0.128,0.524-0.197,0.698c-0.07,0.174-0.155,0.311-0.257,0.412c-0.101,0.101-0.221,0.166-0.361,0.197
				c-0.141,0.03-0.309,0.046-0.504,0.046h-1.313l-1.429-6.978h1.665l0.983,5.229h0.101c0.078,0,0.127-0.034,0.143-0.102l0.799-5.128
				h2.009V89.88z"/>
			<path id="XMLID_54_" style="fill:#F7C567;" d="M131.84,96.782h-1.488v-2.505l-2.043-4.447h1.674l1.093,2.934l1.126-2.934h1.674
				l-2.035,4.422v2.53H131.84z"/>
		</g>
		<g id="XMLID_39_">
			<path id="XMLID_5_" style="fill:#F7C567;" d="M98.92,95.193h0.075c0.101,0,0.182-0.013,0.243-0.038
				c0.063-0.025,0.113-0.067,0.156-0.126c0.042-0.059,0.074-0.133,0.096-0.223c0.023-0.09,0.049-0.202,0.076-0.336l0.9-4.649h1.58
				l-0.857,4.305c-0.084,0.369-0.167,0.714-0.248,1.033c-0.082,0.32-0.193,0.601-0.336,0.841c-0.144,0.241-0.33,0.429-0.56,0.563
				c-0.208,0.129-0.474,0.199-0.799,0.21h-1.589l-0.135-0.697l-0.983-4.675h-0.075c-0.102,0-0.183,0.013-0.244,0.038
				s-0.113,0.067-0.156,0.126c-0.041,0.06-0.074,0.134-0.096,0.223c-0.022,0.09-0.047,0.202-0.075,0.337l-0.9,4.648h-1.581
				l0.858-4.304c0.084-0.37,0.167-0.715,0.248-1.034s0.193-0.6,0.336-0.841c0.143-0.241,0.329-0.432,0.559-0.571
				c0.208-0.124,0.474-0.19,0.799-0.202H97.8l0.135,0.697L98.92,95.193z"/>
			<path id="XMLID_12_" style="fill:#F7C567;" d="M107.654,93.975l-0.539,2.883h-1.547l1.076-5.354
				c0.068-0.331,0.148-0.603,0.244-0.815s0.212-0.384,0.35-0.513c0.137-0.129,0.304-0.219,0.5-0.27
				c0.195-0.051,0.426-0.075,0.689-0.075h1.925l1.454,7.027h-1.555l-0.387-2.009h-1.833L107.654,93.975z M109.184,91.032h-0.227
				c-0.18,0-0.325,0.007-0.438,0.021c-0.111,0.015-0.201,0.046-0.269,0.097s-0.116,0.123-0.147,0.219s-0.061,0.227-0.088,0.396
				l-0.295,1.874h1.9L109.184,91.032z"/>
			<path id="XMLID_25_" style="fill:#F7C567;" d="M121.029,89.88l0.865,5.229h0.093c0.079,0,0.126-0.034,0.144-0.102l0.967-5.128
				h1.656l-1.135,5.624c-0.063,0.292-0.127,0.524-0.193,0.698c-0.068,0.174-0.152,0.311-0.253,0.412
				c-0.101,0.101-0.222,0.166-0.361,0.197c-0.14,0.03-0.309,0.046-0.505,0.046h-1.379l-0.874-4.514h-0.093l-0.571,3.16
				c-0.062,0.292-0.128,0.524-0.197,0.698c-0.07,0.174-0.155,0.311-0.257,0.412c-0.101,0.101-0.221,0.166-0.361,0.197
				c-0.141,0.03-0.309,0.046-0.504,0.046h-1.313l-1.429-6.978h1.665l0.983,5.229h0.101c0.078,0,0.127-0.034,0.143-0.102l0.799-5.128
				h2.009V89.88z"/>
			<path id="XMLID_27_" style="fill:#F7C567;" d="M131.84,96.782h-1.488v-2.505l-2.043-4.447h1.674l1.093,2.934l1.126-2.934h1.674
				l-2.035,4.422v2.53H131.84z"/>
		</g>
	</g>
</g>
</svg>
